<?xml version="1.0" standalone="no"?>
<svg version="1.2" overflow="visible" preserveAspectRatio="none" viewBox="0 0 235 218" xml:space="preserve" y="0px" x="0px" xmlns:xlink="http://www.w3.org/1999/xlink" xmlns="http://www.w3.org/2000/svg" id="Layer_1_1546827424482" width="32.361111111111" height="30"><g transform="translate(1, 1)"><g id="p0LbWJ.tif_1546827424482">
	<g>
		<path d="M233,171c0,1.7,0,3.3,0,5c-1,4-2.1,8.1-3.1,12.1c-2.5-0.6-4.2-1-6.1-1.5c-1.1,2.2-2.1,4.1-3.1,6c-1-1.3-1.8-2.3-2.7-3.4&#10;&#9;&#9;&#9;c-0.7,4.8-1.3,9.1-2,13.5c-0.6,0.2-1.8,0.5-3,0.8c2.9,8.6,0.9,11.2-8.1,11.7c-1.6,0.1-3.3,0.5-4.9,0.7c-4,0-8,0-12,0&#10;&#9;&#9;&#9;c2.4-3.6,4.7-7.3,7.3-10.8c1.6-2.2,4.6-3.4,3.1-7.1c-1.5-3.5-3.1-6.1-7.5-5.6c-3.1,0.3-6.3-0.2-9.5-0.3&#10;&#9;&#9;&#9;c-40.6-0.8-81.2-1.6-121.8-2.3c-9.3-0.2-18.5,0-27.8,0c0-2.8-0.1-4.1,0-5.4c1.8-37.2,3.5-74.5,5.4-111.7c0.2-3.8-0.9-5.8-4.5-6.8&#10;&#9;&#9;&#9;c-1.3-0.3-2.7-1.4-3.4-2.6c-2.6-4.7-4.9-9.5-8-15.5c1.8-2,4.4-5,8-9c-0.2-2.1-0.4-5.9-6.1-4.3c-0.8,0.2-2.1,0-2.8-0.5&#10;&#9;&#9;&#9;c-4.9-3.5-11-6-10.7-13.7C9.8,19.2,9,17.4,8.1,17C3.4,14.8,2.7,10.8,2,6.4C1.8,4.9,0.7,3.5,0,2c-0.3-4,2.7-1.2,4-2&#10;&#9;&#9;&#9;c0.6,0.2,1.2,0.6,1.8,0.7c21.9,1.4,43.8,3.2,65.8,3.9c20.6,0.7,41.3,0.6,62-0.1c8.1-0.3,11.2,5.1,14.9,9.7&#10;&#9;&#9;&#9;c1.3,1.6-0.4,5.6-0.8,8.5c-0.1,1-0.6,2-0.4,2.9c1.2,9.8,2.8,19.5,11.3,26.3c2.6,2.1,4.6,4.9,7.1,7c4.9,4.1,8.1,9,8.8,15.6&#10;&#9;&#9;&#9;c0.2,2.1,1.2,4.1,2.1,6.1c1.3,3,3.3,3.9,6.3,1.9c1.1-0.7,2.8-1.5,3.9-1.1c7.5,2.3,9,5.6,6.1,13c-0.9,2.5-1.9,5-2.8,7.5&#10;&#9;&#9;&#9;c-4,10.5-1.8,16.2,7.6,22.2c6.1,3.9,12.6,7.8,17.3,13.1c3.4,3.8,4.2,9.9,6.1,15c0.1,0.3-0.4,0.9-0.6,1.3&#10;&#9;&#9;&#9;c-2.7,5.8-0.3,12.1,5.9,15.4c0.4-0.8,0.9-1.7,1.1-2.2C229.5,168.2,231.2,169.6,233,171z" vector-effect="non-scaling-stroke" style="fill: rgb(27, 38, 97);"/>
	</g>
</g></g></svg>